:SAMPLES-PER-SECOND 30
:FULLY-SPECIFIED
:DEGREES
413
root  44.7215 38.446 6.45295 -174.495 74.4644 -172.009
RightUpLeg  -10.9448 20.6005 0.586358
RightLeg  24.4164 7.02688 3.25588
RightFoot  -11.5182 -0.0748872 -1.06273
RightToes  5.82063e-011 0 -3.6325e-017
Spine  20.7744 -1.65767 5.16454
Spine1  14.918 0.772106 -5.31862
HEad  -12.1314 9.77795 -7.33488
LeftShoulder1  1.61622 -2.46787 -20.659
LeftArm  -16.3224 -48.7811 -34.749
LeftForeArm  -9.678 -40.0975 -10.0039
LeftHand  -0.0276273 5.24524 -5.50517
RightShoulder  0.882056 0.491898 15.3582
RightArm  -19.3014 41.3254 44.4595
RightForeArm  -22.1462 45.6964 12.8462
RightHand  -0.187232 1.81703 -3.14836
LeftUpLeg  -20.7426 3.64514 2.25314
LeftLeg  21.1384 -17.3587 -6.95119
LeftFoot  8.32731 0.164925 -1.2441
LeftToes  1.81573e-012 2.54609e-010 -3.45981e-011
414
root  44.5479 38.454 6.78105 -176.654 71.517 -174.004
RightUpLeg  -10.91 17.6102 0.679716
RightLeg  24.404 6.2536 2.8726
RightFoot  -9.93411 -0.0367789 -2.69165
RightToes  5.82063e-011 0 -3.6325e-017
Spine  20.4531 -2.04999 6.14984
Spine1  15.2403 0.389415 -5.01885
HEad  -12.0816 12.4012 -9.34196
LeftShoulder1  1.52154 -1.90361 -21.7719
LeftArm  -14.6164 -46.9324 -36.431
LeftForeArm  -8.32089 -43.2772 -11.0668
LeftHand  -0.0170159 5.0617 -5.76608
RightShoulder  0.801522 -0.00675747 16.3499
RightArm  -19.8977 37.6065 42.8034
RightForeArm  -20.6863 51.8927 15.8506
RightHand  -0.2848 2.27587 -4.5116
LeftUpLeg  -20.6074 1.21054 2.02714
LeftLeg  19.6234 -17.9752 -6.67106
LeftFoot  9.67368 0.311611 -1.99946
LeftToes  1.81573e-012 2.54609e-010 -3.45981e-011
415
root  44.301 38.4457 7.18138 -178.829 68.6431 -176.187
RightUpLeg  -11.2635 14.0748 0.156716
RightLeg  24.5132 6.65522 3.08406
RightFoot  -9.34826 -0.0273863 -2.07698
RightToes  5.82063e-011 0 -3.6325e-017
Spine  20.5554 -2.21249 6.93471
Spine1  15.2461 0.455185 -5.35575
HEad  -12.6336 15.9966 -11.8148
LeftShoulder1  1.50689 -1.72287 -22.5213
LeftArm  -13.1884 -44.4979 -38.2915
LeftForeArm  -6.28542 -46.654 -12.3112
LeftHand  0.0094959 4.5561 -5.43705
RightShoulder  0.682558 -0.683469 17.738
RightArm  -20.3518 33.747 40.2342
RightForeArm  -17.6374 58.132 19.9389
RightHand  -0.28908 2.04977 -4.73267
LeftUpLeg  -20.6111 -0.564519 1.47181
LeftLeg  17.7803 -19.0109 -6.33523
LeftFoot  11.3951 0.59143 -3.28369
LeftToes  1.81573e-012 2.54609e-010 -3.45981e-011
416
root  44.047 38.5076 7.59379 179.979 64.6786 -177.709
RightUpLeg  -11.3762 8.04417 -0.510587
RightLeg  23.7489 8.34029 3.78052
RightFoot  -8.56684 -0.00744497 -2.02473
RightToes  5.82063e-011 0 -3.6325e-017
Spine  20.3397 -2.59269 7.2392
Spine1  15.0467 -0.194667 -4.69403
HEad  -12.4718 18.7552 -14.301
LeftShoulder1  1.43413 -1.33601 -23.3519
LeftArm  -11.6234 -42.0001 -39.6213
LeftForeArm  -5.03669 -49.591 -13.5652
LeftHand  -0.00636692 4.80548 -4.7417
RightShoulder  0.635787 -0.953855 18.5782
RightArm  -20.4484 29.4274 38.1862
RightForeArm  -13.6139 63.8959 25.4433
RightHand  -0.363431 0.994361 -6.701
LeftUpLeg  -20.3454 -1.30531 0.467407
LeftLeg  14.5782 -22.228 -5.76385
LeftFoot  13.7891 1.10135 -5.29583
LeftToes  1.81573e-012 2.54609e-010 -3.45981e-011
417
root  43.834 38.5983 8.00998 179.396 59.948 -178.731
RightUpLeg  -11.2209 1.30266 -1.08616
RightLeg  22.603 10.1558 4.38948
RightFoot  -7.87349 0.00108851 -1.7977
RightToes  5.82063e-011 0 -3.6325e-017
Spine  19.0934 -2.98364 8.15906
Spine1  15.7906 -0.62305 -4.55718
HEad  -11.8179 19.7645 -16.0832
LeftShoulder1  1.43239 -1.1837 -24.3344
LeftArm  -9.47835 -40.5287 -40.9227
LeftForeArm  -3.83665 -51.1311 -14.2729
LeftHand  0.0337894 4.14503 -5.7728
RightShoulder  0.522478 -1.43834 19.0494
RightArm  -20.9661 24.5464 36.6206
RightForeArm  -6.24262 68.5727 32.1672
RightHand  -0.305208 0.828236 -5.80334
LeftUpLeg  -19.3001 -0.691794 -0.932317
LeftLeg  9.64174 -27.4711 -4.31556
LeftFoot  15.7014 2.04161 -8.92387
LeftToes  1.81573e-012 2.54609e-010 -3.45981e-011
418
root  43.6507 38.6647 8.40737 178.881 55.7676 -179.498
RightUpLeg  -10.4877 -3.31322 -1.51783
RightLeg  20.721 11.0177 4.3258
RightFoot  -7.6457 -0.0986079 1.45447
RightToes  5.82063e-011 0 -3.6325e-017
Spine  18.3481 -3.09408 8.76987
Spine1  15.7576 -0.643438 -4.78824
HEad  -10.1956 20.1372 -16.9739
LeftShoulder1  1.34869 -0.804382 -25.1046
LeftArm  -6.48205 -38.2719 -42.0562
LeftForeArm  -3.12188 -52.6278 -15.0387
LeftHand  0.0450741 3.86411 -5.36914
RightShoulder  0.431023 -1.85572 20.0469
RightArm  -20.4785 19.2604 34.8557
RightForeArm  2.94477 72.404 40.906
RightHand  -0.286497 0.726682 -5.53286
LeftUpLeg  -17.607 0.100749 -1.82654
LeftLeg  4.32994 -29.4893 -1.95909
LeftFoot  13.5388 3.34435 -15.5161
LeftToes  1.81573e-012 2.54609e-010 -3.45981e-011
419
root  43.4825 38.8209 8.80583 178.537 51.1367 179.678
RightUpLeg  -10.1307 -7.09517 -2.04577
RightLeg  19.1534 10.3123 3.74445
RightFoot  -6.63763 -0.0926295 1.19086
RightToes  5.82063e-011 0 -3.6325e-017
Spine  17.4032 -3.03624 8.7472
Spine1  15.6385 -0.781882 -4.42061
HEad  -8.81089 21.3663 -17.9548
LeftShoulder1  1.31848 -0.609426 -25.8794
LeftArm  -4.45005 -35.516 -43.0945
LeftForeArm  -1.41043 -54.0775 -15.765
LeftHand  0.0401909 3.87512 -4.9939
RightShoulder  0.320867 -2.31 21.0808
RightArm  -19.5397 13.9662 33.4138
RightForeArm  12.9506 75.0447 50.8195
RightHand  -0.352676 0.921023 -6.60485
LeftUpLeg  -16.5676 0.377661 -2.38686
LeftLeg  2.26481 -25.4572 -1.34331
LeftFoot  9.25204 3.08757 -17.0871
LeftToes  1.81573e-012 2.54609e-010 -3.45981e-011
